<svg xmlns="http://www.w3.org/2000/svg"  viewBox="0 0 64 64"><defs fill="#55534E" /><path  d="m54.6,21.12c-4.48-6.64-12.92-11.12-22.6-11.12-14.36,0-26,9.85-26,22s11.64,22,26,22c7.28,0,13.86-2.53,18.57-6.61.92-.79,1.43-1.96,1.43-3.17,0-2.33-1.89-4.22-4.22-4.22s-3.78-1.15-3.78-3,1.33-3,3.74-3c4.56,0,8.26-3.7,8.26-8.26h0c0-1.64-.48-3.26-1.4-4.62Zm-36.6,16.88c-2.21,0-4-1.79-4-4s1.79-4,4-4,4,1.79,4,4-1.79,4-4,4Zm4-17c0-2.21,1.79-4,4-4s4,1.79,4,4-1.79,4-4,4-4-1.79-4-4Zm7,27c-2.21,0-4-1.79-4-4s1.79-4,4-4,4,1.79,4,4-1.79,4-4,4Zm12-21c-2.21,0-4-1.79-4-4s1.79-4,4-4,4,1.79,4,4-1.79,4-4,4Z" fill="#55534E" /></svg>