<svg xmlns="http://www.w3.org/2000/svg"  viewBox="0 0 64 64"><defs fill="#55534E" /><path  d="m27.75,44.73l4.24,4.24-3.51,3.51c-2.34,2.34-5.41,3.51-8.49,3.51-6.63,0-12-5.37-12-12,0-3.07,1.17-6.14,3.51-8.49l10-10c2.34-2.34,5.41-3.51,8.49-3.51s6.14,1.17,8.49,3.51l1.41,1.41-4.24,4.24-1.41-1.41c-1.13-1.13-2.64-1.76-4.24-1.76s-5.11,2.62-6.24,3.76l-8,8c-1.13,1.13-1.76,2.64-1.76,4.24,0,3.31,2.69,6,6,6,1.6,0,3.11-.62,4.24-1.76l3.51-3.51ZM44,8c-3.07,0-6.14,1.17-8.49,3.51l-3.51,3.51,4.24,4.24,3.51-3.51c1.13-1.13,2.64-1.76,4.24-1.76,3.31,0,6,2.69,6,6,0,1.6-.62,3.11-1.76,4.24l-10,10c-1.13,1.13-2.64,1.76-4.24,1.76s-3.11-.62-4.24-1.76l-1.41-1.41-4.24,4.24,1.41,1.41c2.34,2.34,5.41,3.51,8.49,3.51s6.14-1.17,8.49-3.51l10-10c2.34-2.34,3.51-5.41,3.51-8.49,0-6.63-5.37-12-12-12Z" fill="#55534E" /></svg>