<svg xmlns="http://www.w3.org/2000/svg"  viewBox="0 0 64 64"><defs fill="#55534E" /><path  d="m58,12h-6v-6h-4l-4.78,4.78c-3.35-1.77-7.16-2.78-11.22-2.78-13.25,0-24,10.75-24,24s10.75,24,24,24,24-10.75,24-24c0-4.05-1.01-7.87-2.78-11.22l4.78-4.78v-4Zm-18,20c0,4.42-3.58,8-8,8s-8-3.58-8-8,3.58-8,8-8c1.48,0,2.87.41,4.06,1.11l-3.03,3.03c-.33-.09-.67-.15-1.02-.15-2.21,0-4,1.79-4,4s1.79,4,4,4,4-1.79,4-4c0-.36-.06-.69-.15-1.02l3.03-3.03c.7,1.19,1.11,2.57,1.11,4.06Zm-8,18c-9.94,0-18-8.06-18-18s8.06-18,18-18c2.88,0,5.59.69,8,1.89v4.63c-2.27-1.58-5.02-2.52-8-2.52-7.73,0-14,6.27-14,14s6.27,14,14,14,14-6.27,14-14c0-2.98-.94-5.73-2.52-8h4.63c1.2,2.41,1.89,5.12,1.89,8,0,9.94-8.06,18-18,18Z" fill="#55534E" /></svg>